<mxfile host="app.diagrams.net" agent="Mozilla/5.0 (Windows NT 10.0; Win64; x64) AppleWebKit/537.36 (KHTML, like Gecko) Chrome/134.0.0.0 Safari/537.36" version="26.1.1">
  <diagram name="Página-1" id="cUsX9iL3JvTQ3TD-FhvS">
    <mxGraphModel dx="1050" dy="565" grid="1" gridSize="10" guides="1" tooltips="1" connect="1" arrows="1" fold="1" page="1" pageScale="1" pageWidth="827" pageHeight="1169" math="0" shadow="0">
      <root>
        <mxCell id="0" />
        <mxCell id="1" parent="0" />
        <mxCell id="MhlGK43lARG4HOBcBMDW-1" value="ObjetoVolador" style="swimlane;fontStyle=1;align=center;verticalAlign=top;childLayout=stackLayout;horizontal=1;startSize=26;horizontalStack=0;resizeParent=1;resizeParentMax=0;resizeLast=0;collapsible=1;marginBottom=0;whiteSpace=wrap;html=1;" parent="1" vertex="1">
          <mxGeometry x="334" y="40" width="160" height="220" as="geometry" />
        </mxCell>
        <mxCell id="MhlGK43lARG4HOBcBMDW-2" value="- int posicionX&lt;div&gt;- int posicionY&lt;/div&gt;&lt;div&gt;-´int tamanioX&lt;/div&gt;&lt;div&gt;- int tamanioY&lt;/div&gt;&lt;div&gt;- int velocidadX&lt;/div&gt;&lt;div&gt;- int velocidadY&lt;/div&gt;&lt;div&gt;- boolean activo&lt;/div&gt;&lt;div&gt;- Texture imagen&lt;/div&gt;" style="text;strokeColor=none;fillColor=none;align=left;verticalAlign=top;spacingLeft=4;spacingRight=4;overflow=hidden;rotatable=0;points=[[0,0.5],[1,0.5]];portConstraint=eastwest;whiteSpace=wrap;html=1;" parent="MhlGK43lARG4HOBcBMDW-1" vertex="1">
          <mxGeometry y="26" width="160" height="134" as="geometry" />
        </mxCell>
        <mxCell id="MhlGK43lARG4HOBcBMDW-3" value="" style="line;strokeWidth=1;fillColor=none;align=left;verticalAlign=middle;spacingTop=-1;spacingLeft=3;spacingRight=3;rotatable=0;labelPosition=right;points=[];portConstraint=eastwest;strokeColor=inherit;" parent="MhlGK43lARG4HOBcBMDW-1" vertex="1">
          <mxGeometry y="160" width="160" height="8" as="geometry" />
        </mxCell>
        <mxCell id="MhlGK43lARG4HOBcBMDW-4" value="+ C + G&lt;div&gt;+ void pintarse()&lt;/div&gt;&lt;div&gt;+ void moverse(Direccion d)&lt;/div&gt;" style="text;strokeColor=none;fillColor=none;align=left;verticalAlign=top;spacingLeft=4;spacingRight=4;overflow=hidden;rotatable=0;points=[[0,0.5],[1,0.5]];portConstraint=eastwest;whiteSpace=wrap;html=1;" parent="MhlGK43lARG4HOBcBMDW-1" vertex="1">
          <mxGeometry y="168" width="160" height="52" as="geometry" />
        </mxCell>
        <mxCell id="MhlGK43lARG4HOBcBMDW-5" value="Disparo" style="swimlane;fontStyle=1;align=center;verticalAlign=top;childLayout=stackLayout;horizontal=1;startSize=26;horizontalStack=0;resizeParent=1;resizeParentMax=0;resizeLast=0;collapsible=1;marginBottom=0;whiteSpace=wrap;html=1;" parent="1" vertex="1">
          <mxGeometry x="20" y="240" width="270" height="118" as="geometry" />
        </mxCell>
        <mxCell id="MhlGK43lARG4HOBcBMDW-6" value="&lt;div&gt;- enum(Player, Enemigo) origen&lt;/div&gt;" style="text;strokeColor=none;fillColor=none;align=left;verticalAlign=top;spacingLeft=4;spacingRight=4;overflow=hidden;rotatable=0;points=[[0,0.5],[1,0.5]];portConstraint=eastwest;whiteSpace=wrap;html=1;" parent="MhlGK43lARG4HOBcBMDW-5" vertex="1">
          <mxGeometry y="26" width="270" height="44" as="geometry" />
        </mxCell>
        <mxCell id="MhlGK43lARG4HOBcBMDW-7" value="" style="line;strokeWidth=1;fillColor=none;align=left;verticalAlign=middle;spacingTop=-1;spacingLeft=3;spacingRight=3;rotatable=0;labelPosition=right;points=[];portConstraint=eastwest;strokeColor=inherit;" parent="MhlGK43lARG4HOBcBMDW-5" vertex="1">
          <mxGeometry y="70" width="270" height="8" as="geometry" />
        </mxCell>
        <mxCell id="MhlGK43lARG4HOBcBMDW-8" value="+ C + G" style="text;strokeColor=none;fillColor=none;align=left;verticalAlign=top;spacingLeft=4;spacingRight=4;overflow=hidden;rotatable=0;points=[[0,0.5],[1,0.5]];portConstraint=eastwest;whiteSpace=wrap;html=1;" parent="MhlGK43lARG4HOBcBMDW-5" vertex="1">
          <mxGeometry y="78" width="270" height="40" as="geometry" />
        </mxCell>
        <mxCell id="MhlGK43lARG4HOBcBMDW-9" value="Nave" style="swimlane;fontStyle=1;align=center;verticalAlign=top;childLayout=stackLayout;horizontal=1;startSize=26;horizontalStack=0;resizeParent=1;resizeParentMax=0;resizeLast=0;collapsible=1;marginBottom=0;whiteSpace=wrap;html=1;" parent="1" vertex="1">
          <mxGeometry x="550" y="230" width="310" height="130" as="geometry" />
        </mxCell>
        <mxCell id="MhlGK43lARG4HOBcBMDW-10" value="Herencia" style="text;strokeColor=none;fillColor=none;align=left;verticalAlign=top;spacingLeft=4;spacingRight=4;overflow=hidden;rotatable=0;points=[[0,0.5],[1,0.5]];portConstraint=eastwest;whiteSpace=wrap;html=1;" parent="MhlGK43lARG4HOBcBMDW-9" vertex="1">
          <mxGeometry y="26" width="310" height="26" as="geometry" />
        </mxCell>
        <mxCell id="MhlGK43lARG4HOBcBMDW-11" value="" style="line;strokeWidth=1;fillColor=none;align=left;verticalAlign=middle;spacingTop=-1;spacingLeft=3;spacingRight=3;rotatable=0;labelPosition=right;points=[];portConstraint=eastwest;strokeColor=inherit;" parent="MhlGK43lARG4HOBcBMDW-9" vertex="1">
          <mxGeometry y="52" width="310" height="8" as="geometry" />
        </mxCell>
        <mxCell id="MhlGK43lARG4HOBcBMDW-12" value="+ C + G&lt;div&gt;&lt;span style=&quot;background-color: transparent; color: light-dark(rgb(0, 0, 0), rgb(255, 255, 255));&quot;&gt;+ boolean comprobarColisiones()&lt;/span&gt;&lt;div&gt;+ void disparar()&lt;/div&gt;&lt;/div&gt;" style="text;strokeColor=none;fillColor=none;align=left;verticalAlign=top;spacingLeft=4;spacingRight=4;overflow=hidden;rotatable=0;points=[[0,0.5],[1,0.5]];portConstraint=eastwest;whiteSpace=wrap;html=1;" parent="MhlGK43lARG4HOBcBMDW-9" vertex="1">
          <mxGeometry y="60" width="310" height="70" as="geometry" />
        </mxCell>
        <mxCell id="MhlGK43lARG4HOBcBMDW-13" value="Personaje" style="swimlane;fontStyle=1;align=center;verticalAlign=top;childLayout=stackLayout;horizontal=1;startSize=26;horizontalStack=0;resizeParent=1;resizeParentMax=0;resizeLast=0;collapsible=1;marginBottom=0;whiteSpace=wrap;html=1;" parent="1" vertex="1">
          <mxGeometry x="390" y="430" width="160" height="130" as="geometry" />
        </mxCell>
        <mxCell id="MhlGK43lARG4HOBcBMDW-14" value="&lt;div&gt;- int vidas&lt;/div&gt;" style="text;strokeColor=none;fillColor=none;align=left;verticalAlign=top;spacingLeft=4;spacingRight=4;overflow=hidden;rotatable=0;points=[[0,0.5],[1,0.5]];portConstraint=eastwest;whiteSpace=wrap;html=1;" parent="MhlGK43lARG4HOBcBMDW-13" vertex="1">
          <mxGeometry y="26" width="160" height="44" as="geometry" />
        </mxCell>
        <mxCell id="MhlGK43lARG4HOBcBMDW-15" value="" style="line;strokeWidth=1;fillColor=none;align=left;verticalAlign=middle;spacingTop=-1;spacingLeft=3;spacingRight=3;rotatable=0;labelPosition=right;points=[];portConstraint=eastwest;strokeColor=inherit;" parent="MhlGK43lARG4HOBcBMDW-13" vertex="1">
          <mxGeometry y="70" width="160" height="8" as="geometry" />
        </mxCell>
        <mxCell id="MhlGK43lARG4HOBcBMDW-16" value="+ C + G&lt;div&gt;+ perderVida()&lt;/div&gt;" style="text;strokeColor=none;fillColor=none;align=left;verticalAlign=top;spacingLeft=4;spacingRight=4;overflow=hidden;rotatable=0;points=[[0,0.5],[1,0.5]];portConstraint=eastwest;whiteSpace=wrap;html=1;" parent="MhlGK43lARG4HOBcBMDW-13" vertex="1">
          <mxGeometry y="78" width="160" height="52" as="geometry" />
        </mxCell>
        <mxCell id="MhlGK43lARG4HOBcBMDW-17" value="Player" style="swimlane;fontStyle=1;align=center;verticalAlign=top;childLayout=stackLayout;horizontal=1;startSize=26;horizontalStack=0;resizeParent=1;resizeParentMax=0;resizeLast=0;collapsible=1;marginBottom=0;whiteSpace=wrap;html=1;" parent="1" vertex="1">
          <mxGeometry x="385" y="640" width="170" height="150" as="geometry" />
        </mxCell>
        <mxCell id="MhlGK43lARG4HOBcBMDW-18" value="&lt;div&gt;&lt;span style=&quot;background-color: transparent; color: light-dark(rgb(0, 0, 0), rgb(255, 255, 255));&quot;&gt;- String nombre&lt;/span&gt;&lt;/div&gt;&lt;div&gt;- int puntuacion&lt;/div&gt;&lt;div&gt;- List&amp;lt;Disparo&amp;gt; disparos&lt;/div&gt;" style="text;strokeColor=none;fillColor=none;align=left;verticalAlign=top;spacingLeft=4;spacingRight=4;overflow=hidden;rotatable=0;points=[[0,0.5],[1,0.5]];portConstraint=eastwest;whiteSpace=wrap;html=1;" parent="MhlGK43lARG4HOBcBMDW-17" vertex="1">
          <mxGeometry y="26" width="170" height="54" as="geometry" />
        </mxCell>
        <mxCell id="MhlGK43lARG4HOBcBMDW-19" value="" style="line;strokeWidth=1;fillColor=none;align=left;verticalAlign=middle;spacingTop=-1;spacingLeft=3;spacingRight=3;rotatable=0;labelPosition=right;points=[];portConstraint=eastwest;strokeColor=inherit;" parent="MhlGK43lARG4HOBcBMDW-17" vertex="1">
          <mxGeometry y="80" width="170" height="8" as="geometry" />
        </mxCell>
        <mxCell id="MhlGK43lARG4HOBcBMDW-20" value="+ C + G&lt;div&gt;+ void aumentarPuntuacion()&lt;/div&gt;" style="text;strokeColor=none;fillColor=none;align=left;verticalAlign=top;spacingLeft=4;spacingRight=4;overflow=hidden;rotatable=0;points=[[0,0.5],[1,0.5]];portConstraint=eastwest;whiteSpace=wrap;html=1;" parent="MhlGK43lARG4HOBcBMDW-17" vertex="1">
          <mxGeometry y="88" width="170" height="62" as="geometry" />
        </mxCell>
        <mxCell id="MhlGK43lARG4HOBcBMDW-21" value="Enemigo" style="swimlane;fontStyle=1;align=center;verticalAlign=top;childLayout=stackLayout;horizontal=1;startSize=26;horizontalStack=0;resizeParent=1;resizeParentMax=0;resizeLast=0;collapsible=1;marginBottom=0;whiteSpace=wrap;html=1;" parent="1" vertex="1">
          <mxGeometry x="810" y="430" width="280" height="138" as="geometry" />
        </mxCell>
        <mxCell id="MhlGK43lARG4HOBcBMDW-22" value="- List&amp;lt;Disparo&amp;gt; disparos" style="text;strokeColor=none;fillColor=none;align=left;verticalAlign=top;spacingLeft=4;spacingRight=4;overflow=hidden;rotatable=0;points=[[0,0.5],[1,0.5]];portConstraint=eastwest;whiteSpace=wrap;html=1;" parent="MhlGK43lARG4HOBcBMDW-21" vertex="1">
          <mxGeometry y="26" width="280" height="44" as="geometry" />
        </mxCell>
        <mxCell id="MhlGK43lARG4HOBcBMDW-23" value="" style="line;strokeWidth=1;fillColor=none;align=left;verticalAlign=middle;spacingTop=-1;spacingLeft=3;spacingRight=3;rotatable=0;labelPosition=right;points=[];portConstraint=eastwest;strokeColor=inherit;" parent="MhlGK43lARG4HOBcBMDW-21" vertex="1">
          <mxGeometry y="70" width="280" height="8" as="geometry" />
        </mxCell>
        <mxCell id="MhlGK43lARG4HOBcBMDW-24" value="+ C + G&lt;div&gt;&lt;br&gt;&lt;/div&gt;" style="text;strokeColor=none;fillColor=none;align=left;verticalAlign=top;spacingLeft=4;spacingRight=4;overflow=hidden;rotatable=0;points=[[0,0.5],[1,0.5]];portConstraint=eastwest;whiteSpace=wrap;html=1;" parent="MhlGK43lARG4HOBcBMDW-21" vertex="1">
          <mxGeometry y="78" width="280" height="60" as="geometry" />
        </mxCell>
        <mxCell id="MhlGK43lARG4HOBcBMDW-25" value="Extends" style="endArrow=block;endSize=16;endFill=0;html=1;rounded=0;exitX=0.539;exitY=-0.019;exitDx=0;exitDy=0;exitPerimeter=0;" parent="1" source="MhlGK43lARG4HOBcBMDW-5" edge="1">
          <mxGeometry width="160" relative="1" as="geometry">
            <mxPoint x="174" y="129.41000000000003" as="sourcePoint" />
            <mxPoint x="334" y="129.41000000000003" as="targetPoint" />
          </mxGeometry>
        </mxCell>
        <mxCell id="MhlGK43lARG4HOBcBMDW-26" value="Extends" style="endArrow=block;endSize=16;endFill=0;html=1;rounded=0;entryX=1.006;entryY=0.737;entryDx=0;entryDy=0;entryPerimeter=0;exitX=0.419;exitY=0;exitDx=0;exitDy=0;exitPerimeter=0;" parent="1" source="MhlGK43lARG4HOBcBMDW-9" target="MhlGK43lARG4HOBcBMDW-2" edge="1">
          <mxGeometry width="160" relative="1" as="geometry">
            <mxPoint x="590" y="180" as="sourcePoint" />
            <mxPoint x="750" y="180" as="targetPoint" />
          </mxGeometry>
        </mxCell>
        <mxCell id="MhlGK43lARG4HOBcBMDW-27" value="Extends" style="endArrow=block;endSize=16;endFill=0;html=1;rounded=0;entryX=0.211;entryY=0.975;entryDx=0;entryDy=0;entryPerimeter=0;exitX=0.563;exitY=0;exitDx=0;exitDy=0;exitPerimeter=0;" parent="1" source="MhlGK43lARG4HOBcBMDW-13" target="MhlGK43lARG4HOBcBMDW-12" edge="1">
          <mxGeometry width="160" relative="1" as="geometry">
            <mxPoint x="400" y="390" as="sourcePoint" />
            <mxPoint x="560" y="390" as="targetPoint" />
          </mxGeometry>
        </mxCell>
        <mxCell id="MhlGK43lARG4HOBcBMDW-28" value="Extends" style="endArrow=block;endSize=16;endFill=0;html=1;rounded=0;entryX=0.497;entryY=1.133;entryDx=0;entryDy=0;entryPerimeter=0;exitX=0.5;exitY=0;exitDx=0;exitDy=0;" parent="1" source="MhlGK43lARG4HOBcBMDW-17" target="MhlGK43lARG4HOBcBMDW-16" edge="1">
          <mxGeometry width="160" relative="1" as="geometry">
            <mxPoint x="360" y="560" as="sourcePoint" />
            <mxPoint x="520" y="560" as="targetPoint" />
          </mxGeometry>
        </mxCell>
        <mxCell id="MhlGK43lARG4HOBcBMDW-29" value="Extends" style="endArrow=block;endSize=16;endFill=0;html=1;rounded=0;entryX=0.894;entryY=1.038;entryDx=0;entryDy=0;entryPerimeter=0;exitX=0.438;exitY=0;exitDx=0;exitDy=0;exitPerimeter=0;" parent="1" source="MhlGK43lARG4HOBcBMDW-21" target="MhlGK43lARG4HOBcBMDW-12" edge="1">
          <mxGeometry width="160" relative="1" as="geometry">
            <mxPoint x="800" y="390" as="sourcePoint" />
            <mxPoint x="960" y="390" as="targetPoint" />
          </mxGeometry>
        </mxCell>
        <mxCell id="MhlGK43lARG4HOBcBMDW-31" value="Squadron" style="swimlane;fontStyle=1;align=center;verticalAlign=top;childLayout=stackLayout;horizontal=1;startSize=26;horizontalStack=0;resizeParent=1;resizeParentMax=0;resizeLast=0;collapsible=1;marginBottom=0;whiteSpace=wrap;html=1;" parent="1" vertex="1">
          <mxGeometry x="870" y="640" width="160" height="100" as="geometry" />
        </mxCell>
        <mxCell id="MhlGK43lARG4HOBcBMDW-32" value="- Enemigo[] enemigos" style="text;strokeColor=none;fillColor=none;align=left;verticalAlign=top;spacingLeft=4;spacingRight=4;overflow=hidden;rotatable=0;points=[[0,0.5],[1,0.5]];portConstraint=eastwest;whiteSpace=wrap;html=1;" parent="MhlGK43lARG4HOBcBMDW-31" vertex="1">
          <mxGeometry y="26" width="160" height="26" as="geometry" />
        </mxCell>
        <mxCell id="MhlGK43lARG4HOBcBMDW-33" value="" style="line;strokeWidth=1;fillColor=none;align=left;verticalAlign=middle;spacingTop=-1;spacingLeft=3;spacingRight=3;rotatable=0;labelPosition=right;points=[];portConstraint=eastwest;strokeColor=inherit;" parent="MhlGK43lARG4HOBcBMDW-31" vertex="1">
          <mxGeometry y="52" width="160" height="8" as="geometry" />
        </mxCell>
        <mxCell id="MhlGK43lARG4HOBcBMDW-34" value="+ C + G&lt;div&gt;+ void moverEnemigos()&lt;/div&gt;" style="text;strokeColor=none;fillColor=none;align=left;verticalAlign=top;spacingLeft=4;spacingRight=4;overflow=hidden;rotatable=0;points=[[0,0.5],[1,0.5]];portConstraint=eastwest;whiteSpace=wrap;html=1;" parent="MhlGK43lARG4HOBcBMDW-31" vertex="1">
          <mxGeometry y="60" width="160" height="40" as="geometry" />
        </mxCell>
        <mxCell id="MhlGK43lARG4HOBcBMDW-38" value="8" style="endArrow=open;html=1;endSize=12;startArrow=diamondThin;startSize=14;startFill=1;align=left;verticalAlign=bottom;rounded=0;entryX=0.498;entryY=1.056;entryDx=0;entryDy=0;entryPerimeter=0;exitX=0.5;exitY=0;exitDx=0;exitDy=0;" parent="1" source="MhlGK43lARG4HOBcBMDW-31" target="MhlGK43lARG4HOBcBMDW-24" edge="1">
          <mxGeometry x="-0.7707" y="-10" relative="1" as="geometry">
            <mxPoint x="600" y="600" as="sourcePoint" />
            <mxPoint x="760" y="600" as="targetPoint" />
            <mxPoint y="-1" as="offset" />
          </mxGeometry>
        </mxCell>
        <mxCell id="MhlGK43lARG4HOBcBMDW-40" value="Battallion" style="swimlane;fontStyle=1;align=center;verticalAlign=top;childLayout=stackLayout;horizontal=1;startSize=26;horizontalStack=0;resizeParent=1;resizeParentMax=0;resizeLast=0;collapsible=1;marginBottom=0;whiteSpace=wrap;html=1;" parent="1" vertex="1">
          <mxGeometry x="865" y="820" width="170" height="100" as="geometry" />
        </mxCell>
        <mxCell id="MhlGK43lARG4HOBcBMDW-41" value="- Squadron escuadrones" style="text;strokeColor=none;fillColor=none;align=left;verticalAlign=top;spacingLeft=4;spacingRight=4;overflow=hidden;rotatable=0;points=[[0,0.5],[1,0.5]];portConstraint=eastwest;whiteSpace=wrap;html=1;" parent="MhlGK43lARG4HOBcBMDW-40" vertex="1">
          <mxGeometry y="26" width="170" height="26" as="geometry" />
        </mxCell>
        <mxCell id="MhlGK43lARG4HOBcBMDW-42" value="" style="line;strokeWidth=1;fillColor=none;align=left;verticalAlign=middle;spacingTop=-1;spacingLeft=3;spacingRight=3;rotatable=0;labelPosition=right;points=[];portConstraint=eastwest;strokeColor=inherit;" parent="MhlGK43lARG4HOBcBMDW-40" vertex="1">
          <mxGeometry y="52" width="170" height="8" as="geometry" />
        </mxCell>
        <mxCell id="MhlGK43lARG4HOBcBMDW-43" value="+ C + G&lt;div&gt;+ void moverSquadrones()&lt;/div&gt;" style="text;strokeColor=none;fillColor=none;align=left;verticalAlign=top;spacingLeft=4;spacingRight=4;overflow=hidden;rotatable=0;points=[[0,0.5],[1,0.5]];portConstraint=eastwest;whiteSpace=wrap;html=1;" parent="MhlGK43lARG4HOBcBMDW-40" vertex="1">
          <mxGeometry y="60" width="170" height="40" as="geometry" />
        </mxCell>
        <mxCell id="MhlGK43lARG4HOBcBMDW-44" value="3" style="endArrow=open;html=1;endSize=12;startArrow=diamondThin;startSize=14;startFill=1;align=left;verticalAlign=bottom;rounded=0;entryX=0.498;entryY=1.056;entryDx=0;entryDy=0;entryPerimeter=0;exitX=0.5;exitY=0;exitDx=0;exitDy=0;" parent="1" source="MhlGK43lARG4HOBcBMDW-40" edge="1">
          <mxGeometry x="-0.7707" y="-10" relative="1" as="geometry">
            <mxPoint x="949" y="810" as="sourcePoint" />
            <mxPoint x="949.41" y="740" as="targetPoint" />
            <mxPoint y="-1" as="offset" />
          </mxGeometry>
        </mxCell>
        <mxCell id="MhlGK43lARG4HOBcBMDW-49" value="1" style="endArrow=open;html=1;endSize=12;startArrow=diamondThin;startSize=14;startFill=1;edgeStyle=orthogonalEdgeStyle;align=left;verticalAlign=bottom;rounded=0;exitX=0.5;exitY=0;exitDx=0;exitDy=0;entryX=0.548;entryY=1.054;entryDx=0;entryDy=0;entryPerimeter=0;" parent="1" source="MhlGK43lARG4HOBcBMDW-52" target="MhlGK43lARG4HOBcBMDW-20" edge="1">
          <mxGeometry x="-0.9406" y="-10" relative="1" as="geometry">
            <mxPoint x="480" y="950" as="sourcePoint" />
            <mxPoint x="480" y="800" as="targetPoint" />
            <Array as="points">
              <mxPoint x="480" y="793" />
            </Array>
            <mxPoint y="1" as="offset" />
          </mxGeometry>
        </mxCell>
        <mxCell id="MhlGK43lARG4HOBcBMDW-50" value="1" style="endArrow=open;html=1;endSize=12;startArrow=diamondThin;startSize=14;startFill=1;edgeStyle=orthogonalEdgeStyle;align=left;verticalAlign=bottom;rounded=0;entryX=0.5;entryY=1.25;entryDx=0;entryDy=0;entryPerimeter=0;exitX=1.007;exitY=0.381;exitDx=0;exitDy=0;exitPerimeter=0;" parent="1" source="MhlGK43lARG4HOBcBMDW-53" target="MhlGK43lARG4HOBcBMDW-43" edge="1">
          <mxGeometry x="-1" y="3" relative="1" as="geometry">
            <mxPoint x="550" y="1000" as="sourcePoint" />
            <mxPoint x="720" y="1000" as="targetPoint" />
            <Array as="points">
              <mxPoint x="950" y="1000" />
            </Array>
          </mxGeometry>
        </mxCell>
        <mxCell id="MhlGK43lARG4HOBcBMDW-52" value="Game" style="swimlane;fontStyle=1;align=center;verticalAlign=top;childLayout=stackLayout;horizontal=1;startSize=26;horizontalStack=0;resizeParent=1;resizeParentMax=0;resizeLast=0;collapsible=1;marginBottom=0;whiteSpace=wrap;html=1;" parent="1" vertex="1">
          <mxGeometry x="400" y="950" width="160" height="124" as="geometry" />
        </mxCell>
        <mxCell id="MhlGK43lARG4HOBcBMDW-53" value="- Player jugador&lt;div&gt;- Battallion[] batallon&lt;/div&gt;" style="text;strokeColor=none;fillColor=none;align=left;verticalAlign=top;spacingLeft=4;spacingRight=4;overflow=hidden;rotatable=0;points=[[0,0.5],[1,0.5]];portConstraint=eastwest;whiteSpace=wrap;html=1;" parent="MhlGK43lARG4HOBcBMDW-52" vertex="1">
          <mxGeometry y="26" width="160" height="64" as="geometry" />
        </mxCell>
        <mxCell id="MhlGK43lARG4HOBcBMDW-54" value="" style="line;strokeWidth=1;fillColor=none;align=left;verticalAlign=middle;spacingTop=-1;spacingLeft=3;spacingRight=3;rotatable=0;labelPosition=right;points=[];portConstraint=eastwest;strokeColor=inherit;" parent="MhlGK43lARG4HOBcBMDW-52" vertex="1">
          <mxGeometry y="90" width="160" height="8" as="geometry" />
        </mxCell>
        <mxCell id="MhlGK43lARG4HOBcBMDW-55" value="+ C + G" style="text;strokeColor=none;fillColor=none;align=left;verticalAlign=top;spacingLeft=4;spacingRight=4;overflow=hidden;rotatable=0;points=[[0,0.5],[1,0.5]];portConstraint=eastwest;whiteSpace=wrap;html=1;" parent="MhlGK43lARG4HOBcBMDW-52" vertex="1">
          <mxGeometry y="98" width="160" height="26" as="geometry" />
        </mxCell>
        <mxCell id="jQZLwSRg-lKbbUjvr_hu-1" value="*" style="endArrow=open;html=1;endSize=12;startArrow=diamondThin;startSize=14;startFill=0;edgeStyle=orthogonalEdgeStyle;align=left;verticalAlign=bottom;rounded=0;entryX=0.481;entryY=1.05;entryDx=0;entryDy=0;entryPerimeter=0;exitX=-0.002;exitY=0.9;exitDx=0;exitDy=0;exitPerimeter=0;" parent="1" source="MhlGK43lARG4HOBcBMDW-18" target="MhlGK43lARG4HOBcBMDW-8" edge="1">
          <mxGeometry x="-0.8824" y="-5" relative="1" as="geometry">
            <mxPoint x="110" y="470" as="sourcePoint" />
            <mxPoint x="270" y="470" as="targetPoint" />
            <Array as="points">
              <mxPoint x="150" y="715" />
            </Array>
            <mxPoint as="offset" />
          </mxGeometry>
        </mxCell>
        <mxCell id="jQZLwSRg-lKbbUjvr_hu-2" value="*" style="endArrow=open;html=1;endSize=12;startArrow=diamondThin;startSize=14;startFill=0;edgeStyle=orthogonalEdgeStyle;align=left;verticalAlign=bottom;rounded=0;entryX=1.015;entryY=0.686;entryDx=0;entryDy=0;entryPerimeter=0;exitX=0;exitY=0.5;exitDx=0;exitDy=0;" parent="1" source="MhlGK43lARG4HOBcBMDW-22" target="MhlGK43lARG4HOBcBMDW-6" edge="1">
          <mxGeometry x="-0.9427" y="-8" relative="1" as="geometry">
            <mxPoint x="569" y="625" as="sourcePoint" />
            <mxPoint x="334" y="270" as="targetPoint" />
            <Array as="points">
              <mxPoint x="760" y="478" />
              <mxPoint x="760" y="410" />
              <mxPoint x="334" y="410" />
              <mxPoint x="334" y="296" />
            </Array>
            <mxPoint as="offset" />
          </mxGeometry>
        </mxCell>
      </root>
    </mxGraphModel>
  </diagram>
</mxfile>
